<?xml version="1.0" encoding="UTF-8" standalone="no"?>
<!-- Created with Inkscape (http://www.inkscape.org/) -->

<svg
   xmlns:dc="http://purl.org/dc/elements/1.1/"
   xmlns:cc="http://creativecommons.org/ns#"
   xmlns:rdf="http://www.w3.org/1999/02/22-rdf-syntax-ns#"
   xmlns:svg="http://www.w3.org/2000/svg"
   xmlns="http://www.w3.org/2000/svg"
   xmlns:xlink="http://www.w3.org/1999/xlink"
   xmlns:sodipodi="http://sodipodi.sourceforge.net/DTD/sodipodi-0.dtd"
   xmlns:inkscape="http://www.inkscape.org/namespaces/inkscape"
   width="108.19299mm"
   height="114.53812mm"
   viewBox="0 0 383.361 405.84374"
   id="svg4615"
   version="1.1"
   inkscape:version="0.91 r13725"
   sodipodi:docname="Alphabet19R.svg">
  <defs
     id="defs4617">
    <linearGradient
       inkscape:collect="always"
       xlink:href="#linearGradient258"
       id="linearGradient4599"
       x1="425.25363"
       y1="16.65662"
       x2="422.76398"
       y2="220.74387"
       gradientUnits="userSpaceOnUse"
       gradientTransform="matrix(2,0,0,2,-2094.4191,-235.64059)" />
    <linearGradient
       x1="0"
       y1="0"
       x2="1"
       y2="0"
       gradientUnits="userSpaceOnUse"
       gradientTransform="matrix(-7.2e-6,-165.75,-165.75,7.2e-6,367.66699,177.56201)"
       spreadMethod="pad"
       id="linearGradient258">
      <stop
         style="stop-opacity:1;stop-color:#fdc82c"
         offset="0"
         id="stop260" />
      <stop
         style="stop-opacity:1;stop-color:#fdc82c"
         offset="0.239968"
         id="stop262" />
      <stop
         style="stop-opacity:1;stop-color:#236f46"
         offset="1"
         id="stop264" />
    </linearGradient>
  </defs>
  <sodipodi:namedview
     id="base"
     pagecolor="#ffffff"
     bordercolor="#666666"
     borderopacity="1.0"
     inkscape:pageopacity="0.0"
     inkscape:pageshadow="2"
     inkscape:zoom="1.3059214"
     inkscape:cx="191.6805"
     inkscape:cy="202.92186"
     inkscape:document-units="px"
     inkscape:current-layer="layer1"
     showgrid="false"
     fit-margin-top="0"
     fit-margin-left="0"
     fit-margin-right="0"
     fit-margin-bottom="0"
     inkscape:window-width="1366"
     inkscape:window-height="705"
     inkscape:window-x="-8"
     inkscape:window-y="-8"
     inkscape:window-maximized="1" />
  <metadata
     id="metadata4620">
    <rdf:RDF>
      <cc:Work
         rdf:about="">
        <dc:format>image/svg+xml</dc:format>
        <dc:type
           rdf:resource="http://purl.org/dc/dcmitype/StillImage" />
        <dc:title></dc:title>
      </cc:Work>
    </rdf:RDF>
  </metadata>
  <g
     inkscape:label="Layer 1"
     inkscape:groupmode="layer"
     id="layer1"
     transform="translate(1448.8254,201.98824)">
    <path
       style="fill:url(#linearGradient4599);fill-opacity:1;fill-rule:nonzero;stroke:none"
       d="m -1262.5949,-201.98824 c -47.0825,0 -89.0955,10.82906 -126.043,32.47656 -40.13,23.445 -60.1875,52.44671 -60.1875,87.011718 0,11.5225 6.8472,20.91016 20.5547,28.16016 13.7075,7.25 30.2942,10.875 49.7617,10.875 6.9525,-0.3975 12.5164,-0.69454 16.6914,-0.89454 12.1125,-0.9925 22.048,-2.38437 29.793,-4.17187 30.99,-7.7475 54.7263,-18.07328 71.2188,-30.98828 18.4725,-14.4975 27.7109,-32.279848 27.7109,-53.339848 0,-5.56 -1.8916,-10.12813 -5.6641,-13.70313 -4.57,-4.3675 -11.4236,-6.55858 -20.5586,-6.55858 -10.725,0 -24.0382,5.86202 -39.9257,17.58202 -10.3325,7.55 -19.5724,13.70516 -27.7149,18.47266 -8.1475,4.7675 -12.6201,7.94765 -13.4101,9.53515 -0.795,1.5925 -1.1914,4.47204 -1.1914,8.644538 l 0,3.57422 c 0,2.385 0.1517,7.45031 0.4492,15.19531 0.2975,7.75 0.4453,12.42031 0.4453,14.00781 0.99,0.595 2.3869,0.89063 4.1719,0.89063 2.58,0 5.8584,-0.3939 9.8359,-1.1914 l 30.6875,-14.30469 2.3867,-38.136728 c 5.3625,-6.75 11.4731,-11.62156 18.3281,-14.60156 6.85,-2.9825 13.5519,-4.46875 20.1094,-4.46875 2.1825,0 4.7152,1.63797 7.5977,4.91797 2.875,3.275 4.3203,6.60157 4.3203,9.97657 0,11.325 -8.7427,23.145938 -26.2227,35.460938 -13.51,9.3375 -31.0922,18.2764 -52.7422,26.8164 -7.745,2.97999 -15.9929,5.21703 -24.7304,6.70703 -8.745,1.49 -17.3844,2.23047 -25.9219,2.23047 -22.25,0 -39.0344,-4.36688 -50.3594,-13.10938 -9.1375,-7.15 -13.7031,-16.0889 -13.7031,-26.8164 0,-18.274998 8.7402,-34.861728 26.2227,-49.761728 14.695,-12.5125 33.9671,-22.7439 57.8046,-30.6914 21.055,-6.95 40.0252,-10.42968 56.9102,-10.42968 13.5075,0 26.0244,1.39187 37.5469,4.17187 19.465,4.7675 36.3028,13.9589 50.5078,27.5664 14.2,13.6075 21.3047,27.0661 21.3047,40.3711 0,4.7675 0.097,9.88765 0.2968,15.347648 0.1975,5.4675 0.4921,11.27469 0.8946,17.42969 0,6.755 -0.65,12.61954 -1.9375,17.58204 -1.295,4.9675 -4.0228,10.63187 -8.1953,16.98437 -0.595,0.7975 -3.273,4.66859 -8.043,11.6211 -1.9875,2.78248 -2.9805,4.8678 -2.9805,6.2578 0,5.96 3.3753,11.32484 10.1328,16.0898403 8.5375,-3.7700003 15.493,-7.9456103 20.8555,-12.5156103 4.3675,-3.7725 9.633,-9.7289 15.793,-17.87891 8.9375,-11.5175 15.2419,-22.79532 18.9219,-33.82032 3.6725,-11.025 5.5117,-22.78968 5.5117,-35.304688 0,-17.68 -5.6644,-34.06796 -16.9844,-49.16796 -10.5325,-13.9025 -23.9377,-24.33406 -40.2227,-31.28906 -10.3325,-4.5675 -21.1579,-7.84594 -32.4804,-9.83594 -11.325,-1.98 -23.8394,-2.97656 -37.5469,-2.97656 z m -34.5664,147.796878 c -1.19,0.7975 -3.7736,2.13452 -7.7461,4.01952 -3.975,1.89 -8.5445,3.83 -13.707,5.8125 l -22.9453,7.15235 -1.4883,203.812502 c 0,2.9825 -1.1917,5.76374 -3.5742,8.34374 -1.3925,1.39 -3.9227,3.03048 -7.5977,4.91798 -3.68,1.89 -8.7902,2.82812 -15.3477,2.82812 l -22.3476,2.38282 -5.957,4.17186 c -0.7975,0.4025 -1.445,0.99656 -1.9375,1.78906 -0.5,0.7975 -0.848,1.6911 -1.043,2.6836 0.595,1.9875 1.1926,3.17672 1.7851,3.57422 22.65,-3.9725 48.9674,-5.96094 78.9649,-5.96094 25.425,0 47.7705,1.59454 67.043,4.76954 l 4.1718,0 c 2.18,-0.395 3.4711,-0.79142 3.8711,-1.19142 1.1925,-1.59 1.7891,-3.47656 1.7891,-5.66406 -5.765,-4.77 -11.8208,-7.15234 -18.1758,-7.15234 -2.5825,-0.395 -5.1152,-0.74406 -7.5977,-1.03906 -2.4875,-0.3 -4.7245,-0.44532 -6.707,-0.44532 -2.1875,0.4 -4.2753,0.59376 -6.2578,0.59376 -4.17,0 -7.447,-1.29 -9.832,-3.875 -3.5775,-3.77 -5.3633,-10.32798 -5.3633,-19.66798 l 0.3008,-124.851562 c 4.9625,-0.395 9.2375,-0.98624 12.8125,-1.78124 10.325,-2.385 21.2534,-6.55954 32.7734,-12.51954 -0.9925,-0.5975 -1.6884,-0.9914 -2.0859,-1.1914 -3.775,-2.385 -6.4555,-3.77188 -8.043,-4.17188 -4.5725,1.7875 -8.2459,3.085 -11.0234,3.875 -8.7475,2.785 -15.0978,4.17188 -19.0703,4.17188 -3.775,0 -5.6641,-1.09126 -5.6641,-3.28126 l 0,-72.10545 z m 58.7031,17.57812 c -2.785,0 -5.2667,0.79671 -7.4492,2.38671 l -15.4961,10.72267 c -4.5725,2.9825 -8.3417,5.565 -11.3242,7.75 -5.765,4.37 -9.6347,7.8496703 -11.6172,10.4296703 0.79,0.7975 1.3852,1.29328 1.7852,1.48828 1.385,1.1925 2.2835,1.78908 2.6835,1.78908 2.9775,-0.99252 5.8582,-1.4922 8.6407,-1.4922 4.9625,0 9.7283,1.19312 14.3008,3.57812 4.5675,2.3825 7.9428,5.56126 10.1328,9.53126 l 81.0507,146.0078217 c 14.3,22.25248 23.884,35.86312 28.754,40.82812 4.865,4.9625 10.3751,7.44922 16.5351,7.44922 l 6.2578,0 48.0469,-40.6797 0,-0.004 0.5195,-0.4414 0,-4.17188 c 0.1807,-0.54204 0.2164,-0.9922 0.125,-1.35938 -3e-4,-0.001 3e-4,-0.003 0,-0.004 -0.046,-0.1839 -0.1257,-0.3445 -0.2343,-0.48828 -0.1083,-0.1438 -0.2439,-0.26876 -0.4102,-0.375 -9e-4,-5.6e-4 0,5.4e-4 0,0 -0.43,-0.275 -1.0083,-0.45312 -1.8633,-0.45312 -1.9875,0 -4.668,0.7953 -8.043,2.3828 -0.595,0.2 -1.4896,0.6997 -2.6796,1.4922 -5.365,0 -14.6049,-7.15314 -27.7149,-21.45314 -11.9175,-13.1125 -22.9417,-27.31328 -33.0742,-42.613282 l -66.4453,-101.6091097 c -6.1625,-9.5350203 -11.2292,-16.3886003 -15.1992,-20.5586003 -6.16,-6.75 -11.9163,-10.13281 -17.2813,-10.13281 z"
       id="path182"
       inkscape:connector-curvature="0" />
  </g>
</svg>
